<svg version="1.1" viewBox="0.0 0.0 720.0 540.0" fill="none" stroke="none" stroke-linecap="square" stroke-miterlimit="10" xmlns:xlink="http://www.w3.org/1999/xlink" xmlns="http://www.w3.org/2000/svg"><clipPath id="p.0"><path d="m0 0l720.0 0l0 540.0l-720.0 0l0 -540.0z" clip-rule="nonzero"/></clipPath><g clip-path="url(#p.0)"><path fill="#000000" fill-opacity="0.0" d="m0 0l720.0 0l0 540.0l-720.0 0z" fill-rule="evenodd"/><path fill="#f0f0f0" d="m75.59055 -1.8897418l564.88184 0l0 540.0l-564.88184 0z" fill-rule="evenodd"/><path fill="#c469cc" d="m122.66096 43.110275l94.11024 0l0 89.98425l-94.11024 0z" fill-rule="evenodd"/><path stroke="#c469cc" stroke-width="1.0" stroke-linejoin="round" stroke-linecap="butt" d="m122.66096 43.110275l94.11024 0l0 89.98425l-94.11024 0z" fill-rule="evenodd"/><path fill="#c469cc" d="m216.80176 133.1103l94.11023 0l0 270.04724l-94.11023 0z" fill-rule="evenodd"/><path stroke="#c469cc" stroke-width="1.0" stroke-linejoin="round" stroke-linecap="butt" d="m216.80176 133.1103l94.11023 0l0 270.04724l-94.11023 0z" fill-rule="evenodd"/><path fill="#c469cc" d="m122.66096 313.11038l94.11024 0l0 179.9685l-94.11024 0z" fill-rule="evenodd"/><path stroke="#c469cc" stroke-width="1.0" stroke-linejoin="round" stroke-linecap="butt" d="m122.66096 313.11038l94.11024 0l0 179.9685l-94.11024 0z" fill-rule="evenodd"/><path fill="#c469cc" d="m310.94257 403.1104l94.11023 0l0 89.98425l-94.11023 0z" fill-rule="evenodd"/><path stroke="#c469cc" stroke-width="1.0" stroke-linejoin="round" stroke-linecap="butt" d="m310.94257 403.1104l94.11023 0l0 89.98425l-94.11023 0z" fill-rule="evenodd"/><path fill="#c469cc" d="m405.08337 133.1103l94.11023 0l0 270.04724l-94.11023 0z" fill-rule="evenodd"/><path stroke="#c469cc" stroke-width="1.0" stroke-linejoin="round" stroke-linecap="butt" d="m405.08337 133.1103l94.11023 0l0 270.04724l-94.11023 0z" fill-rule="evenodd"/><path fill="#c469cc" d="m499.22418 313.11038l94.11023 0l0 179.9685l-94.11023 0z" fill-rule="evenodd"/><path stroke="#c469cc" stroke-width="1.0" stroke-linejoin="round" stroke-linecap="butt" d="m499.22418 313.11038l94.11023 0l0 179.9685l-94.11023 0z" fill-rule="evenodd"/><path fill="#c469cc" d="m499.22418 43.110275l94.11023 0l0 89.98425l-94.11023 0z" fill-rule="evenodd"/><path stroke="#c469cc" stroke-width="1.0" stroke-linejoin="round" stroke-linecap="butt" d="m499.22418 43.110275l94.11023 0l0 89.98425l-94.11023 0z" fill-rule="evenodd"/></g></svg>