<svg version="1.1" xmlns="http://www.w3.org/2000/svg" xmlns:xlink="http://www.w3.org/1999/xlink" width="371.63259" height="355.26297" viewBox="0,0,371.63259,355.26297"><g transform="translate(-2.6446,-2.24848)"><g data-paper-data="{&quot;isPaintingLayer&quot;:true}" fill-rule="evenodd" stroke-width="1" stroke-miterlimit="10" stroke-dasharray="" stroke-dashoffset="0" style="mix-blend-mode: normal"><path d="M2.64461,2.24848h371.63259v355.26297h-371.63259z" fill="#f0f0f0" stroke="none" stroke-linecap="square" stroke-linejoin="miter"/><path d="M33.61196,31.85374h61.9146v59.20014h-61.9146z" fill="#c469cc" stroke="none" stroke-linecap="square" stroke-linejoin="miter"/><path d="M33.61196,31.85374h61.9146v59.20014h-61.9146z" fill="none" stroke="#c469cc" stroke-linecap="butt" stroke-linejoin="round"/><path d="M95.54667,91.06425h61.91459v177.66256h-61.91459z" fill="#c469cc" stroke="none" stroke-linecap="square" stroke-linejoin="miter"/><path d="M95.54667,91.06425h61.91459v177.66256h-61.91459z" fill="none" stroke="#c469cc" stroke-linecap="butt" stroke-linejoin="round"/><path d="M33.61196,209.48529h61.9146v118.40027h-61.9146z" fill="#c469cc" stroke="none" stroke-linecap="square" stroke-linejoin="miter"/><path d="M33.61196,209.48529h61.9146v118.40027h-61.9146z" fill="none" stroke="#c469cc" stroke-linecap="butt" stroke-linejoin="round"/><path d="M157.48138,268.6958h61.91459v59.20013h-61.91459z" fill="#c469cc" stroke="none" stroke-linecap="square" stroke-linejoin="miter"/><path d="M157.48138,268.6958h61.91459v59.20013h-61.91459z" fill="none" stroke="#c469cc" stroke-linecap="butt" stroke-linejoin="round"/><path d="M219.41608,91.06425h61.91459v177.66256h-61.91459z" fill="#c469cc" stroke="none" stroke-linecap="square" stroke-linejoin="miter"/><path d="M219.41608,91.06425h61.91459v177.66256h-61.91459z" fill="none" stroke="#c469cc" stroke-linecap="butt" stroke-linejoin="round"/><path d="M281.35079,209.48529h61.91459v118.40027h-61.91459z" fill="#c469cc" stroke="none" stroke-linecap="square" stroke-linejoin="miter"/><path d="M281.35079,209.48529h61.91459v118.40027h-61.91459z" fill="none" stroke="#c469cc" stroke-linecap="butt" stroke-linejoin="round"/><path d="M281.35079,31.85374h61.91459v59.20014h-61.91459z" fill="#c469cc" stroke="none" stroke-linecap="square" stroke-linejoin="miter"/><path d="M281.35079,31.85374h61.91459v59.20014h-61.91459z" fill="none" stroke="#c469cc" stroke-linecap="butt" stroke-linejoin="round"/></g></g></svg>